<svg xmlns="http://www.w3.org/2000/svg" width="48.877" height="39.102" viewBox="0 0 48.877 39.102">
  <path id="Development" d="M19.477,19.982a1.222,1.222,0,0,0,1.728,0l.864-.864a1.222,1.222,0,0,0,0-1.728l-2.728-2.727,2.727-2.728a1.222,1.222,0,0,0,0-1.728L21.2,9.343a1.222,1.222,0,0,0-1.728,0L15.021,13.8a1.222,1.222,0,0,0,0,1.728Zm7.332-.863.864.864a1.222,1.222,0,0,0,1.728,0l4.455-4.455a1.222,1.222,0,0,0,0-1.728L29.4,9.344a1.222,1.222,0,0,0-1.728,0l-.864.864a1.222,1.222,0,0,0,0,1.728l2.727,2.727-2.727,2.728A1.222,1.222,0,0,0,26.809,19.119ZM47.655,31.77H29.138a2.407,2.407,0,0,1-2.5,2.444H21.995a2.593,2.593,0,0,1-2.5-2.444H1.222A1.226,1.226,0,0,0,0,32.992v1.222A4.9,4.9,0,0,0,4.888,39.1h39.1a4.9,4.9,0,0,0,4.888-4.888V32.992A1.226,1.226,0,0,0,47.655,31.77Zm-3.666-28.1A3.677,3.677,0,0,0,40.324,0H8.553A3.677,3.677,0,0,0,4.888,3.666v25.66h39.1ZM39.1,24.439H9.775V4.888H39.1Z"/>
</svg>
