<svg xmlns="http://www.w3.org/2000/svg" width="48.049" height="48.049" viewBox="0 0 48.049 48.049">
  <path id="Finance_Accounting_" data-name="Finance &amp; Accounting " d="M0,38.035v4.007c0,3.313,8.071,6.006,18.018,6.006s18.018-2.693,18.018-6.006V38.035c-3.876,2.731-10.961,4.007-18.018,4.007S3.876,40.766,0,38.035ZM30.03,12.012c9.948,0,18.018-2.693,18.018-6.006S39.978,0,30.03,0,12.012,2.693,12.012,6.006,20.083,12.012,30.03,12.012ZM0,28.191v4.842c0,3.313,8.071,6.006,18.018,6.006s18.018-2.693,18.018-6.006V28.191c-3.876,3.191-10.97,4.842-18.018,4.842S3.876,31.382,0,28.191Zm39.04,1.032c5.377-1.042,9.009-2.975,9.009-5.2V20.017a23.045,23.045,0,0,1-9.009,3.238ZM18.018,15.015C8.071,15.015,0,18.375,0,22.523S8.071,30.03,18.018,30.03s18.018-3.36,18.018-7.508S27.966,15.015,18.018,15.015ZM38.6,20.3c5.631-1.014,9.45-3,9.45-5.283V11.008c-3.331,2.356-9.056,3.622-15.081,3.923C35.736,16.273,37.773,18.075,38.6,20.3Z"/>
</svg>
