<svg xmlns="http://www.w3.org/2000/svg" width="48.193" height="42.169" viewBox="0 0 48.193 42.169">
  <path id="Health_Fitness" data-name="Health &amp; Fitness" d="M30.124,51.89l-4.678,9.356a1.5,1.5,0,0,1-2.72-.056L17.371,49.3,14.547,56.05H5.69L22.868,73.6a1.677,1.677,0,0,0,2.419,0L42.473,56.05H32.2ZM44.572,35.9l-.226-.235a12.33,12.33,0,0,0-17.638,0l-2.626,2.692-2.626-2.682a12.314,12.314,0,0,0-17.638,0l-.226.226A12.923,12.923,0,0,0,2.9,53.038h9.638l3.379-8.113a1.509,1.509,0,0,1,2.767-.038l5.478,12.17,4.612-9.215a1.5,1.5,0,0,1,2.692,0l2.6,5.2H45.259A12.923,12.923,0,0,0,44.572,35.9Z" transform="translate(0.015 -31.95)"/>
</svg>
