<svg xmlns="http://www.w3.org/2000/svg" width="48.357" height="48.355" viewBox="0 0 48.357 48.355">
  <path id="Music" d="M44.427.169,14.206,9.094a3.022,3.022,0,0,0-2.117,2.882v24.69a13.128,13.128,0,0,0-3.022-.37C4.061,36.295,0,39,0,42.34s4.061,6.045,9.067,6.045,9.067-2.707,9.067-6.045V20.269l24.179-7.084V30.621a13.072,13.072,0,0,0-3.022-.371c-5.006,0-9.067,2.707-9.067,6.045s4.061,6.045,9.067,6.045,9.067-2.706,9.067-6.045V3.049A3.022,3.022,0,0,0,44.427.169Z" transform="translate(0 -0.03)"/>
</svg>
