<svg xmlns="http://www.w3.org/2000/svg" xmlns:xlink="http://www.w3.org/1999/xlink" width="418" height="436" viewBox="0 0 418 436">
  <defs>
    <filter id="Shape" x="0" y="0" width="394.275" height="436" filterUnits="userSpaceOnUse">
      <feOffset dy="6" input="SourceAlpha"/>
      <feGaussianBlur stdDeviation="6" result="blur"/>
      <feFlood flood-opacity="0.388"/>
      <feComposite operator="in" in2="blur"/>
      <feComposite in="SourceGraphic"/>
    </filter>
  </defs>
  <g id="Group_945" data-name="Group 945" transform="translate(-159 -198)">
    <g transform="matrix(1, 0, 0, 1, 159, 198)" filter="url(#Shape)">
      <path id="Shape-2" data-name="Shape" d="M10.817,250.276a48.854,48.854,0,0,0,6.918,4c2.886,1.473,7.711,3.94,8.051,5.673a11.516,11.516,0,0,1-.78,6.747c-.993,2.133-2.039,3.967-2.933,5.553-2.446,4.307-6.525,11.526-.367,16.566,1.44,1.333,3.926,3.26,6.2,5a16.8,16.8,0,0,0-2.173,9.62,9.62,9.62,0,0,0,3.912,6.533c1.5,1.067,3.106,2,4.665,2.9,3.919,2.233,5.452,3.273,6,5.333a18.411,18.411,0,0,1-.733,8.073c-.393,1.733-.773,3.46-1.02,5.233a39.2,39.2,0,0,0,2.253,17.96,24.974,24.974,0,0,0,23.614,18.2,27.072,27.072,0,0,0,5.445-.573,505.192,505.192,0,0,0,56.191-16.82c15.009,8.813,24.5,35.612,26.973,45.672A6.666,6.666,0,0,0,159.5,401l167.288-.467a6.666,6.666,0,0,0,6.345-8.666,51.5,51.5,0,0,0-6.751-12.666,61.844,61.844,0,0,1-4.319-7.2,126.931,126.931,0,0,1-7.525-18.98,224.738,224.738,0,0,1-7.884-39.439,112.887,112.887,0,0,1,8.758-58.539,149.028,149.028,0,0,1,18.1-28.619c4-5.4,8.151-10.993,11.877-16.866a103.117,103.117,0,0,0,13.73-32.466,6.665,6.665,0,0,0-12.983-3.013,90.012,90.012,0,0,1-12,28.333c-3.459,5.473-7.458,10.86-11.33,16.073A161.1,161.1,0,0,0,303.2,249.716a126.144,126.144,0,0,0-9.771,65.465,236.681,236.681,0,0,0,8.4,41.819,138.976,138.976,0,0,0,8.271,20.879,72.858,72.858,0,0,0,5.165,8.666l.447.667-151.172.453a106.317,106.317,0,0,0-23.467-42.572l6-2.087c4.479-1.567,7.858-2.747,9.6-3.333,28.539-9.1,42.815-22.1,42.422-38.666a6.545,6.545,0,0,0-6.8-6.473,6.665,6.665,0,0,0-6.5,6.82c.16,6.82-5.458,16.806-33.164,25.633-1.813.58-5.332,1.8-9.937,3.42-4.952,1.727-11.23,3.927-18.162,6.28h-.047A519.016,519.016,0,0,1,67.2,354.02a11.87,11.87,0,0,1-13.73-8.873,26.672,26.672,0,0,1-1.646-11.813c.193-1.333.507-2.733.813-4.093a29.1,29.1,0,0,0,.666-14.353A22.091,22.091,0,0,0,41,301.281l-1.433-.82a24.532,24.532,0,0,1,2.573-4.133,6.668,6.668,0,0,0-1.286-9.493c-1.593-1.173-5.332-4-8.131-6.227.32-.58.666-1.22,1.006-1.793,1.046-1.84,2.246-4,3.406-6.447a24.892,24.892,0,0,0,1.773-14.913c-1.593-8.133-9.384-12.12-15.069-15.026a38.509,38.509,0,0,1-5.492-3.193,28.407,28.407,0,0,1-4-3.24c0-1.013,1.086-3.46,6.158-9.64A268.99,268.99,0,0,0,51,176.791a19.816,19.816,0,0,0,2.573-9.013,23.334,23.334,0,0,0-9.777-16.666c-2.7-2.48-5.252-4.813-5.538-6.78a13.1,13.1,0,0,1,1.08-4.74c1.086-2.853,2.346-5.653,3.6-8.46A97.863,97.863,0,0,0,49.6,113.059a178.84,178.84,0,0,1,6-22.053A114.3,114.3,0,0,1,79.511,51.934c12.743-13.5,32.8-23.046,59.73-28.393a432.985,432.985,0,0,1,62.53-9.013A145.85,145.85,0,0,1,223,14.981a6.682,6.682,0,0,0,1.24-13.306,162.082,162.082,0,0,0-23.167-.46,444.762,444.762,0,0,0-64.462,9.253c-30.052,6-51.892,16.54-66.8,32.3A127.514,127.514,0,0,0,43.075,86.386a194.939,194.939,0,0,0-6.565,24.093,86.356,86.356,0,0,1-5.718,15.2c-1.333,3.033-2.706,6.067-3.906,9.22a23.3,23.3,0,0,0-1.813,11.193,25.634,25.634,0,0,0,9.751,14.84c3.266,2.993,5.419,5.1,5.445,6.94a11.293,11.293,0,0,1-1.133,2.893A257.332,257.332,0,0,1,9.971,218.17C5.145,224.056.08,230.916,1.14,237.782A20.424,20.424,0,0,0,10.817,250.276Z" transform="translate(17 11)" fill="#fff"/>
    </g>
    <path id="Shape-3" data-name="Shape" d="M28.262,70.248a87.994,87.994,0,0,1,18.33-30.06c8.9-9.425,24.3-16.366,45.771-20.634a6.681,6.681,0,0,0-2.6-13.106C65.523,11.27,47.734,19.527,36.886,30.99A101.269,101.269,0,0,0,15.724,65.645a169.984,169.984,0,0,0-5.484,20.38l13.046,2.892A159.726,159.726,0,0,1,28.262,70.248Z" transform="translate(228.338 239.22)" fill="#fff"/>
    <path id="Shape-4" data-name="Shape" d="M106.9,38.408l-4.008,19.986A79.569,79.569,0,0,0,91.64,63.07L74.68,51.714A13.36,13.36,0,0,0,57.9,53.458L46.811,64.54a13.36,13.36,0,0,0-1.763,16.934l11.3,16.88A79.535,79.535,0,0,0,51.674,109.6l-19.96,4.008A13.359,13.359,0,0,0,21,126.716v15.765a13.36,13.36,0,0,0,10.688,13.1l19.986,4.008a79.533,79.533,0,0,0,4.676,11.249L44.994,187.8a13.36,13.36,0,0,0,1.743,16.78l11.089,11.089a13.4,13.4,0,0,0,16.927,1.757l16.88-11.3a79.541,79.541,0,0,0,11.249,4.676l4.008,19.96A13.36,13.36,0,0,0,120,241.477h15.765a13.36,13.36,0,0,0,13.1-10.688l4.008-19.986a79.537,79.537,0,0,0,11.249-4.676l16.96,11.356a13.36,13.36,0,0,0,16.78-1.743l11.082-11.082a13.36,13.36,0,0,0,1.763-16.934l-11.3-16.88a79.541,79.541,0,0,0,4.676-11.249l19.96-4.008a13.307,13.307,0,0,0,9.2-6.96l10.067,6.747a12.194,12.194,0,0,0,6.486,1.877,12.024,12.024,0,0,0,8.53-3.547l8.884-8.884a12.131,12.131,0,0,0,1.556-15.19l-8.617-12.892a62.832,62.832,0,0,0,3.233-7.762l15.117-3.013A12.024,12.024,0,0,0,288.2,94.118V81.56a12.024,12.024,0,0,0-9.653-11.83L263.361,66.7a61.861,61.861,0,0,0-3.22-7.762L268.892,45.9a12.071,12.071,0,0,0-1.67-15.016L258.338,22a12.124,12.124,0,0,0-15.19-1.556l-12.892,8.617a62.8,62.8,0,0,0-7.762-3.233l-3.019-15.117A12.024,12.024,0,0,0,207.637,1H195.079a12.024,12.024,0,0,0-11.83,9.652l-3.026,15.183a61.831,61.831,0,0,0-7.762,3.24l-13.046-8.751A12.084,12.084,0,0,0,144.4,22l-6.012,6.012a13.683,13.683,0,0,0-2.625-.287H120A13.36,13.36,0,0,0,106.9,38.408ZM209.02,64.593l-3.12-3.12a26.579,26.579,0,0,1,8.3,50.146l-10.14-2a79.533,79.533,0,0,0-4.676-11.249l11.356-16.96a13.36,13.36,0,0,0-1.723-16.793ZM153.109,32.155l15.27,10.26a6.68,6.68,0,0,0,7.134.194,48.86,48.86,0,0,1,12.224-5.11,6.679,6.679,0,0,0,4.81-5.144l3.587-18h10.447L210.169,32.4a6.679,6.679,0,0,0,4.81,5.144,48.859,48.859,0,0,1,12.224,5.11,6.68,6.68,0,0,0,7.134-.234l15.27-10.247,7.415,7.415L246.781,54.86a6.679,6.679,0,0,0-.194,7.134,48.853,48.853,0,0,1,5.11,12.224,6.68,6.68,0,0,0,5.144,4.81l18.036,3.587V93.063l-18,3.587a6.68,6.68,0,0,0-5.144,4.81,48.852,48.852,0,0,1-5.11,12.224,6.679,6.679,0,0,0,.194,7.134l10.247,15.27-7.415,7.415-14.89-9.96v-6.827a13.4,13.4,0,0,0-4.676-10.174A39.986,39.986,0,0,0,202.226,47.76a38.657,38.657,0,0,0-11.884,1.951,13.547,13.547,0,0,0-9.352,2.057l-16.867,11.3a79.567,79.567,0,0,0-11.249-4.676l-4.008-19.96a12.2,12.2,0,0,0-.461-1.576ZM115.187,64.974,120,41.08h15.765l4.8,23.914a6.681,6.681,0,0,0,4.8,5.13,65.806,65.806,0,0,1,15.771,6.546,6.679,6.679,0,0,0,7.067-.227l20.214-13.52,11.2,11.135-13.56,20.233a6.679,6.679,0,0,0-.227,7.067,65.8,65.8,0,0,1,6.546,15.771,6.681,6.681,0,0,0,5.13,4.8L221.4,126.71v15.771l-23.914,4.8a6.681,6.681,0,0,0-5.13,4.8,65.8,65.8,0,0,1-6.546,15.771,6.679,6.679,0,0,0,.227,7.067l13.52,20.213-11.135,11.2-20.234-13.56a6.679,6.679,0,0,0-7.067-.227,65.8,65.8,0,0,1-15.771,6.546,6.681,6.681,0,0,0-4.8,5.13l-4.783,23.894H120l-4.8-23.914a6.681,6.681,0,0,0-4.8-5.13,65.806,65.806,0,0,1-15.771-6.546,6.679,6.679,0,0,0-7.067.227l-20.213,13.52-11.2-11.135L69.7,174.905a6.679,6.679,0,0,0,.227-7.067,65.805,65.805,0,0,1-6.546-15.771,6.681,6.681,0,0,0-5.13-4.8L34.36,142.481V126.716l23.914-4.8a6.681,6.681,0,0,0,5.13-4.8,65.8,65.8,0,0,1,6.546-15.771,6.679,6.679,0,0,0-.227-7.067L56.2,74.058l11.135-11.2,20.233,13.56a6.679,6.679,0,0,0,7.067.227A65.806,65.806,0,0,1,110.411,70.1,6.681,6.681,0,0,0,115.187,64.974Z" transform="translate(288.803 209.01)" fill="#fff"/>
    <path id="Shape-5" data-name="Shape" d="M76.76,107.519A46.759,46.759,0,1,0,30,60.759,46.759,46.759,0,0,0,76.76,107.519Zm0-80.159a33.4,33.4,0,1,1-33.4,33.4A33.4,33.4,0,0,1,76.76,27.36Z" transform="translate(340.222 282.621)" fill="#fff"/>
    <ellipse id="Oval" cx="6.5" cy="3" rx="6.5" ry="3" transform="translate(412.91 343.13)" fill="#fff"/>
    <ellipse id="Oval-2" data-name="Oval" cx="12" cy="9" rx="12" ry="9" transform="translate(225.404 343.121)" fill="#fff"/>
  </g>
</svg>
